<svg version="1.1" id="Layer_1" xmlns="http://www.w3.org/2000/svg" xmlns:xlink="http://www.w3.org/1999/xlink" x="0px" y="0px"
	 width="50px" height="50px" viewBox="0 0 50 50" enable-background="new 0 0 50 50" xml:space="preserve">
<path d="M47.977,7.438c0,1.657-1.258,3-2.811,3H4.835c-1.553,0-2.812-1.343-2.812-3l0,0c0-1.657,1.259-3,2.812-3h40.331
	C46.719,4.438,47.977,5.78,47.977,7.438L47.977,7.438z"/>
<path d="M47.977,42.563c0,1.656-1.258,3-2.811,3H4.835c-1.553,0-2.812-1.344-2.812-3l0,0c0-1.657,1.259-3,2.812-3h40.331
	C46.719,39.563,47.977,40.905,47.977,42.563L47.977,42.563z"/>
<text transform="matrix(1.0928 0 0 1 2.9165 29.8594)" font-family="'MyriadPro-Regular'" font-size="16.5576">menu</text>
</svg>
